<svg width="36.000000" height="36.000000" viewBox="0 0 36 36" fill="none" xmlns="http://www.w3.org/2000/svg" xmlns:xlink="http://www.w3.org/1999/xlink">
	<desc>
			Created with Pixso.
	</desc>
	<defs>
		<clipPath id="clip3_1">
			<rect id="Стоу меню" width="36.000000" height="36.000000" fill="white" fill-opacity="0"/>
		</clipPath>
	</defs>
	<g clip-path="url(#clip3_1)">
		<path id="path" d="M6.02 9.72L6 9.75C5.15 9.75 4.5 9.09 4.5 8.25C4.5 7.4 5.15 6.75 6 6.75L6.02 6.77L6.02 9.72ZM29.98 6.77L30 6.75C30.84 6.75 31.5 7.4 31.5 8.25C31.5 9.09 30.84 9.75 30 9.75L29.98 9.72L29.98 6.77Z" fill="#000000" fill-opacity="0" fill-rule="nonzero"/>
		<path id="path" d="M6 8.25L30 8.25" stroke="#000000" stroke-opacity="1.000000" stroke-width="3.000000" stroke-linejoin="round" stroke-linecap="round"/>
		<path id="path" d="M6.02 19.48L6 19.5C5.15 19.5 4.5 18.84 4.5 18C4.5 17.16 5.15 16.5 6 16.5L6.02 16.52L6.02 19.48ZM29.98 16.52L30 16.5C30.84 16.5 31.5 17.16 31.5 18C31.5 18.84 30.84 19.5 30 19.5L29.98 19.48L29.98 16.52Z" fill="#000000" fill-opacity="0" fill-rule="nonzero"/>
		<path id="path" d="M6 18L30 18" stroke="#000000" stroke-opacity="1.000000" stroke-width="3.000000" stroke-linejoin="round" stroke-linecap="round"/>
		<path id="path" d="M6.02 29.23L6 29.25C5.15 29.25 4.5 28.59 4.5 27.75C4.5 26.91 5.15 26.25 6 26.25L6.02 26.27L6.02 29.23ZM29.98 26.27L30 26.25C30.84 26.25 31.5 26.91 31.5 27.75C31.5 28.59 30.84 29.25 30 29.25L29.98 29.23L29.98 26.27Z" fill="#000000" fill-opacity="0" fill-rule="nonzero"/>
		<path id="path" d="M6 27.75L30 27.75" stroke="#000000" stroke-opacity="1.000000" stroke-width="3.000000" stroke-linejoin="round" stroke-linecap="round"/>
	</g>
</svg>
